<?xml version="1.0" encoding="utf-8" ?><svg xmlns="http://www.w3.org/2000/svg" xmlns:xlink="http://www.w3.org/1999/xlink" width="2293" height="956" viewBox="0 0 2293 956"><clipPath id="cl_3"><rect width="2293" height="956"/></clipPath><g clip-path="url(#cl_3)"><path fill="white" transform="translate(-356 -1070)" d="M1983.52 1426.25C2041.07 1419.82 2093.06 1460.95 2100.05 1518.44C2107.04 1575.92 2066.42 1628.31 2009 1635.85C1950.79 1643.5 1897.53 1602.2 1890.44 1543.92C1883.36 1485.64 1925.18 1432.77 1983.52 1426.25ZM2007.53 1598.47C2031.8 1593.95 2051.75 1576.71 2059.72 1553.35C2067.7 1529.99 2062.46 1504.14 2046.02 1485.73C2029.59 1467.32 2004.5 1459.2 1980.39 1464.48C1943.92 1472.48 1920.62 1508.25 1928.03 1544.83C1935.44 1581.42 1970.83 1605.3 2007.53 1598.47Z"/><path fill="white" transform="translate(-356 -1070)" d="M1171.97 1426.28C1229.86 1419.71 1282.14 1461.28 1288.77 1519.17C1295.4 1577.06 1253.88 1629.37 1196 1636.06C1138.03 1642.76 1085.63 1601.17 1078.99 1543.2C1072.35 1485.23 1113.99 1432.87 1171.97 1426.28ZM1197.49 1598.33C1234.67 1590.74 1258.58 1554.34 1250.77 1517.2C1242.97 1480.06 1206.43 1456.36 1169.34 1464.37C1132.53 1472.32 1109.06 1508.5 1116.8 1545.35C1124.55 1582.2 1160.6 1605.87 1197.49 1598.33Z"/><path fill="white" transform="translate(-356 -1070)" d="M820.175 1563.18C820.595 1540.44 815.606 1442.75 825.833 1429.63C832.566 1427.07 839.565 1425.97 846.733 1425.5C867.99 1424.09 1029.85 1422.92 1039 1427.53C1044.16 1430.13 1048.15 1438.18 1048.57 1443.7C1048.9 1447.94 1046.44 1453.93 1043.5 1456.99C1040.4 1460.24 1035.06 1462.02 1030.71 1462.59C1013.45 1464.88 993.271 1462.83 975.741 1462.81L857.066 1462.67C857.137 1513.14 857.196 1563.52 857.268 1614.08C860.015 1632.03 840.069 1646.67 826.429 1631.16C791.731 1591.69 762.142 1540.77 728.05 1501.26L727.088 1500.16L727.202 1579.98C727.318 1594.59 734.53 1640.61 707.97 1637.34C699.499 1636.29 691.355 1628.5 691.359 1619.3C691.384 1558.68 689.68 1497.38 692.064 1436.89C692.273 1431.61 698.711 1427.52 702.617 1425.16C706.895 1425.23 715.921 1425.34 718.728 1428.73C753.456 1470.67 787.971 1519.64 820.175 1563.18Z"/><path fill="white" transform="translate(-356 -1070)" d="M2154 1425.4C2160.36 1425.04 2168.63 1424.78 2172.84 1430.12C2206.77 1473.15 2241.17 1518.59 2272.99 1563.15C2273.24 1534.76 2273.28 1506.36 2273.11 1477.97C2273.1 1460.43 2265.43 1413.69 2301.57 1427.4C2308.42 1430 2309.97 1438.69 2309.99 1445.64C2310.18 1505.2 2311.43 1565.19 2309.41 1624.66C2309.23 1629.92 2302.76 1633.79 2298.76 1636.01C2291.72 1636.48 2284.32 1635.86 2279.31 1630.35C2265.57 1615.24 2253.68 1598.23 2241.5 1581.82L2179.54 1498.64L2179.56 1578.03C2179.55 1592 2179.83 1606.15 2179.35 1620.08C2178.79 1636.18 2157.79 1641.19 2147.6 1630.79C2144.19 1627.31 2144.24 1618.13 2143.7 1613.49C2143.05 1562.18 2143.71 1510.82 2143.31 1459.5C2143.25 1452.5 2143.06 1444.86 2144.11 1437.97C2145.08 1431.59 2148.96 1428.69 2154 1425.4Z"/><path fill="white" transform="translate(-356 -1070)" d="M1674.11 1425.66C1694.05 1424.37 1755.29 1433.09 1757.55 1462.58C1760.33 1499.02 1720.03 1473.74 1704.27 1465.83C1673.78 1450.53 1622.06 1481.2 1675.7 1502.89C1724.63 1520.28 1790.33 1543.42 1752.17 1610.46C1742.53 1627.4 1716.4 1634.03 1697.4 1636.71C1666.92 1636.85 1643.52 1630.53 1618.64 1611.4C1598.42 1599.76 1617.12 1567.42 1632.94 1577.14C1659.86 1593.68 1694.85 1615.08 1723.58 1586.01C1741.28 1568.1 1700.25 1552.23 1687.58 1547.42C1660.99 1537.21 1621.02 1524.92 1616.68 1491.23C1611.5 1450.93 1639.42 1431.77 1674.11 1425.66Z"/><path fill="white" transform="translate(-356 -1070)" d="M1323.83 1425.2C1328.02 1425.31 1333.5 1425.23 1337.31 1427.08C1349.07 1432.78 1394.99 1551.18 1404.39 1571.59C1420.54 1527.45 1444.09 1481.28 1461.74 1437.41C1465.46 1428.17 1475.88 1423.77 1485.35 1426.98C1508.97 1435 1485.8 1474.13 1479.58 1489.07C1470.05 1510.51 1425.9 1624.27 1414.66 1632.8C1410.66 1635.83 1404.6 1637.23 1399.7 1635.99C1394.53 1634.69 1391.71 1631.99 1388.97 1627.65C1380.48 1614.16 1374.7 1597.35 1368.47 1582.68L1336.22 1506.55C1328.33 1487.95 1319.9 1469.52 1312.26 1450.89C1307.25 1438.68 1314.01 1430.93 1323.83 1425.2Z"/><path fill="white" transform="translate(-356 -1070)" d="M1543.68 1425.13C1558.84 1425.21 1567.29 1431.93 1567.51 1447.6C1568.05 1496.78 1567.86 1546.07 1567.73 1595.26C1567.68 1613.63 1570.84 1626.27 1554.32 1636.4C1541.86 1636.83 1531.24 1632.9 1531.05 1618.41C1530.24 1559.06 1529.82 1499.16 1531.44 1439.86C1531.63 1432.83 1538.54 1428.34 1543.68 1425.13Z"/><path fill="white" transform="translate(-356 -1070)" d="M1820.26 1425.24C1835.35 1424.93 1843.73 1431.04 1843.58 1446.98C1843.03 1506.1 1845.45 1565.73 1842.61 1624.7C1842.37 1629.8 1835.05 1634.13 1831.23 1636.51C1817.44 1636.54 1808.34 1632.71 1808.25 1617C1807.92 1557.98 1806.78 1498.52 1808.57 1439.56C1808.74 1433.7 1815.77 1428.19 1820.26 1425.24Z"/><path fill="white" transform="translate(-356 -1070)" d="M927.506 1509.09C955.853 1509.03 1008.77 1505.61 1036.36 1512.2C1050.44 1515.57 1054.92 1541.39 1030.38 1547.67C995.939 1547.4 953.98 1550.46 920.951 1544.77C912.22 1543.27 900.766 1516.78 927.506 1509.09Z"/><path fill="white" transform="translate(-356 -1070)" d="M923.981 1599.67C951.462 1598.59 979.777 1599.91 1007.33 1599.3C1017.75 1599.07 1039.32 1597.54 1045.12 1607.83C1052.69 1621.26 1048.15 1629.57 1036.02 1637.03C1006.05 1641.08 956.474 1636.85 925.033 1636.43C912.43 1636.26 901.3 1612.16 923.981 1599.67Z"/></g></svg>